<svg width="16" height="16" viewBox="0 0 16 16" fill="none" xmlns="http://www.w3.org/2000/svg">
<path fill-rule="evenodd" clip-rule="evenodd" d="M7.58914 1.66141C4.31426 1.66141 1.65945 4.31622 1.65945 7.59109C1.65945 10.866 4.31426 13.5208 7.58914 13.5208C10.864 13.5208 13.5188 10.866 13.5188 7.59109C13.5188 4.31622 10.864 1.66141 7.58914 1.66141ZM0.236328 7.59109C0.236328 3.53025 3.52829 0.238281 7.58914 0.238281C11.65 0.238281 14.942 3.53025 14.942 7.59109C14.942 11.6519 11.65 14.9439 7.58914 14.9439C3.52829 14.9439 0.236328 11.6519 0.236328 7.59109ZM10.9385 5.19044C11.2164 5.46833 11.2164 5.91886 10.9385 6.19674L7.14354 9.99174C6.86566 10.2696 6.41512 10.2696 6.13724 9.99174L4.23974 8.09425C3.96186 7.81636 3.96186 7.36583 4.23974 7.08794C4.51762 6.81006 4.96816 6.81006 5.24604 7.08794L6.64039 8.48229L9.93224 5.19044C10.2101 4.91256 10.6607 4.91256 10.9385 5.19044Z" fill="#23C571"/>
</svg>
