<svg width="43" height="43" viewBox="0 0 43 43" fill="none" xmlns="http://www.w3.org/2000/svg">
<path d="M18.586 33.3213C18.6907 33.0688 18.98 32.9486 19.2325 33.0531C19.4069 33.1255 19.5987 33.1659 19.8009 33.1659H20.7909C21.0643 33.1659 21.2859 33.3876 21.2859 33.6609C21.2859 33.9343 21.0643 34.1559 20.7909 34.1559H19.8009C19.4663 34.1559 19.146 34.089 18.8535 33.9677C18.601 33.863 18.4813 33.5738 18.586 33.3213ZM24.7509 33.1659C25.0243 33.1659 25.2459 33.3876 25.2459 33.6609C25.2459 33.9343 25.0243 34.1559 24.7509 34.1559H22.7709C22.4976 34.1559 22.2759 33.9343 22.2759 33.6609C22.2759 33.3876 22.4976 33.1659 22.7709 33.1659H24.7509ZM28.7109 33.1659C28.9843 33.1659 29.2059 33.3876 29.2059 33.6609C29.2059 33.9343 28.9843 34.1559 28.7109 34.1559H26.7309C26.4576 34.1559 26.2359 33.9343 26.2359 33.6609C26.2359 33.3876 26.4576 33.1659 26.7309 33.1659H28.7109ZM32.2494 33.0531C32.5019 32.9486 32.7912 33.0688 32.8959 33.3213C33.0005 33.5738 32.8809 33.863 32.6284 33.9677C32.3359 34.089 32.0156 34.1559 31.6809 34.1559H30.6909C30.4176 34.1559 30.1959 33.9343 30.1959 33.6609C30.1959 33.3876 30.4176 33.1659 30.6909 33.1659H31.6809C31.8832 33.1659 32.075 33.1255 32.2494 33.0531ZM17.8209 30.1959C18.0943 30.1959 18.3159 30.4176 18.3159 30.6909V31.6809C18.3159 31.8832 18.3564 32.075 18.4287 32.2494C18.5333 32.5019 18.4131 32.7912 18.1606 32.8959C17.9081 33.0005 17.6189 32.8809 17.5141 32.6284C17.3928 32.3359 17.3259 32.0156 17.3259 31.6809V30.6909C17.3259 30.4176 17.5476 30.1959 17.8209 30.1959ZM33.6609 30.1959C33.9343 30.1959 34.1559 30.4176 34.1559 30.6909V31.6809C34.1559 32.0156 34.089 32.3359 33.9677 32.6284C33.863 32.8809 33.5738 33.0005 33.3213 32.8959C33.0688 32.7912 32.9486 32.5019 33.0531 32.2494C33.1255 32.075 33.1659 31.8832 33.1659 31.6809V30.6909C33.1659 30.4176 33.3876 30.1959 33.6609 30.1959ZM17.8209 26.2359C18.0943 26.2359 18.3159 26.4576 18.3159 26.7309V28.7109C18.3159 28.9843 18.0943 29.2059 17.8209 29.2059C17.5476 29.2059 17.3259 28.9843 17.3259 28.7109V26.7309C17.3259 26.4576 17.5476 26.2359 17.8209 26.2359ZM22.4409 8.08594C23.8078 8.08594 24.9159 9.19403 24.9159 10.5609V22.4409C24.9159 22.9452 24.7631 23.4129 24.5041 23.8041L28.2159 27.516V23.7609C28.2159 23.4876 28.4376 23.2659 28.7109 23.2659C28.9843 23.2659 29.2059 23.4876 29.2059 23.7609V28.7109C29.2059 28.9843 28.9843 29.2059 28.7109 29.2059H23.7609C23.4876 29.2059 23.2659 28.9843 23.2659 28.7109C23.2659 28.4376 23.4876 28.2159 23.7609 28.2159H27.516L16.151 16.8509L16.1168 16.8135C15.9582 16.6191 15.9697 16.3322 16.151 16.151C16.3322 15.9697 16.6191 15.9582 16.8135 16.1168L16.8509 16.151L23.7796 23.0797C23.8724 22.8861 23.9259 22.6701 23.9259 22.4409V10.5609C23.9259 9.74079 23.2611 9.07594 22.4409 9.07594H10.5609C9.74079 9.07594 9.07594 9.74079 9.07594 10.5609V22.4409C9.07594 23.2611 9.74079 23.9259 10.5609 23.9259H19.3059C19.5793 23.9259 19.8009 24.1476 19.8009 24.4209C19.8009 24.6943 19.5793 24.9159 19.3059 24.9159H10.5609C9.19403 24.9159 8.08594 23.8078 8.08594 22.4409V10.5609C8.08594 9.19403 9.19403 8.08594 10.5609 8.08594H22.4409ZM33.6609 26.2359C33.9343 26.2359 34.1559 26.4576 34.1559 26.7309V28.7109C34.1559 28.9843 33.9343 29.2059 33.6609 29.2059C33.3876 29.2059 33.1659 28.9843 33.1659 28.7109V26.7309C33.1659 26.4576 33.3876 26.2359 33.6609 26.2359ZM33.6609 22.2759C33.9343 22.2759 34.1559 22.4976 34.1559 22.7709V24.7509C34.1559 25.0243 33.9343 25.2459 33.6609 25.2459C33.3876 25.2459 33.1659 25.0243 33.1659 24.7509V22.7709C33.1659 22.4976 33.3876 22.2759 33.6609 22.2759ZM33.3213 18.586C33.5738 18.4813 33.863 18.601 33.9677 18.8535C34.089 19.146 34.1559 19.4663 34.1559 19.8009V20.7909C34.1559 21.0643 33.9343 21.2859 33.6609 21.2859C33.3876 21.2859 33.1659 21.0643 33.1659 20.7909V19.8009C33.1659 19.5987 33.1255 19.4069 33.0531 19.2325C32.9486 18.98 33.0688 18.6907 33.3213 18.586ZM31.6809 17.3259C32.0156 17.3259 32.3359 17.3928 32.6284 17.5141C32.8809 17.6189 33.0005 17.9081 32.8959 18.1606C32.7912 18.4131 32.5019 18.5333 32.2494 18.4287C32.075 18.3564 31.8832 18.3159 31.6809 18.3159H30.6909C30.4176 18.3159 30.1959 18.0943 30.1959 17.8209C30.1959 17.5476 30.4176 17.3259 30.6909 17.3259H31.6809ZM28.7109 17.3259C28.9843 17.3259 29.2059 17.5476 29.2059 17.8209C29.2059 18.0943 28.9843 18.3159 28.7109 18.3159H26.7309C26.4576 18.3159 26.2359 18.0943 26.2359 17.8209C26.2359 17.5476 26.4576 17.3259 26.7309 17.3259H28.7109Z" fill="#67768B"/>
</svg>
