<svg width="16" height="16" viewBox="0 0 16 16" fill="none" xmlns="http://www.w3.org/2000/svg">
<path d="M8.53813 1.58156C8.53813 1.05758 8.11336 0.632812 7.58938 0.632812C7.06539 0.632812 6.64062 1.05758 6.64062 1.58156V2.84656C6.64062 3.37054 7.06539 3.79531 7.58938 3.79531C8.11336 3.79531 8.53813 3.37054 8.53813 2.84656V1.58156Z" fill="#95A4BB"/>
<path d="M12.5088 4.00479C12.8793 3.63428 12.8793 3.03356 12.5088 2.66306C12.1382 2.29255 11.5375 2.29255 11.167 2.66306L10.2725 3.55755C9.90202 3.92805 9.90202 4.52877 10.2725 4.89928C10.643 5.26979 11.2438 5.26979 11.6143 4.89928L12.5088 4.00479Z" fill="#95A4BB"/>
<path d="M13.5981 8.53813C14.1221 8.53813 14.5469 8.11336 14.5469 7.58938C14.5469 7.06539 14.1221 6.64062 13.5981 6.64062H12.3331C11.8091 6.64062 11.3844 7.06539 11.3844 7.58938C11.3844 8.11336 11.8091 8.53813 12.3331 8.53813H13.5981Z" fill="#95A4BB"/>
<path d="M11.1651 12.5107C11.5356 12.8812 12.1364 12.8812 12.5069 12.5107C12.8774 12.1402 12.8774 11.5395 12.5069 11.169L11.6124 10.2745C11.2419 9.90398 10.6412 9.90398 10.2706 10.2745C9.90013 10.645 9.90013 11.2457 10.2706 11.6162L11.1651 12.5107Z" fill="#95A4BB"/>
<path d="M6.63961 13.5981C6.63961 14.1221 7.06438 14.5469 7.58836 14.5469C8.11234 14.5469 8.53711 14.1221 8.53711 13.5981V12.3331C8.53711 11.8091 8.11234 11.3844 7.58836 11.3844C7.06438 11.3844 6.63961 11.8091 6.63961 12.3331V13.5981Z" fill="#95A4BB"/>
<path d="M2.66702 11.1671C2.29651 11.5376 2.29651 12.1383 2.66702 12.5088C3.03753 12.8793 3.63825 12.8793 4.00876 12.5088L4.90325 11.6143C5.27376 11.2438 5.27376 10.6431 4.90325 10.2726C4.53274 9.90208 3.93202 9.90208 3.56151 10.2726L2.66702 11.1671Z" fill="#95A4BB"/>
<path d="M1.57961 6.64156C1.05563 6.64156 0.630859 7.06633 0.630859 7.59031C0.630859 8.11429 1.05563 8.53906 1.57961 8.53906H2.84461C3.36859 8.53906 3.79336 8.11429 3.79336 7.59031C3.79336 7.06633 3.36859 6.64156 2.84461 6.64156H1.57961Z" fill="#95A4BB"/>
<path d="M4.0126 2.66898C3.64209 2.29847 3.04138 2.29847 2.67087 2.66898C2.30036 3.03949 2.30036 3.6402 2.67087 4.01071L3.56536 4.9052C3.93587 5.27571 4.53658 5.27571 4.90709 4.9052C5.2776 4.53469 5.2776 3.93398 4.90709 3.56347L4.0126 2.66898Z" fill="#95A4BB"/>
</svg>
