<svg width="14" height="14" viewBox="0 0 14 14" fill="none" xmlns="http://www.w3.org/2000/svg">
<path fill-rule="evenodd" clip-rule="evenodd" d="M6.86114 0.214844C7.03173 0.214844 7.19533 0.282608 7.31595 0.40323L9.88871 2.97599C10.1399 3.22717 10.1399 3.63442 9.88871 3.8856C9.63753 4.13678 9.23028 4.13678 8.9791 3.8856L7.50433 2.41083L7.50432 7.71874C7.50432 8.07396 7.21636 8.36193 6.86113 8.36193C6.50591 8.36192 6.21794 8.07396 6.21794 7.71873L6.21795 2.41084L4.74319 3.8856C4.49201 4.13678 4.08476 4.13678 3.83358 3.8856C3.5824 3.63442 3.5824 3.22717 3.83358 2.97599L6.40634 0.40323C6.52696 0.282608 6.69056 0.214844 6.86114 0.214844ZM12.8643 7.07554C13.2195 7.07554 13.5075 7.36351 13.5075 7.71873V11.1491C13.5075 12.4516 12.4516 13.5074 11.1491 13.5074L2.57321 13.5075C1.27072 13.5075 0.214844 12.4516 0.214844 11.1491L0.214844 7.71873C0.214844 7.36351 0.50281 7.07554 0.858034 7.07554C1.21326 7.07554 1.50123 7.36351 1.50123 7.71873L1.50123 11.1491C1.50123 11.7411 1.98117 12.2211 2.57321 12.2211L11.1491 12.2211C11.7411 12.2211 12.2211 11.7411 12.2211 11.1491V7.71873C12.2211 7.36351 12.509 7.07554 12.8643 7.07554Z" fill="white"/>
</svg>
